HIERARCHY
ROOT Hips
{
  OFFSET 5.80788e-005 67.184 3.4734
  CHANNELS 6 Xposition Yposition Zposition Zrotation Xrotation Yrotation
  JOINT Chest
  {
    OFFSET 0 8.7983 -4.7612
    CHANNELS 3 Zrotation Xrotation Yrotation
    JOINT Chest2
    {
      OFFSET 0 8.0291 0.4195
      CHANNELS 3 Zrotation Xrotation Yrotation
      JOINT Chest3
      {
        OFFSET 0 9.9351 -2.2114
        CHANNELS 3 Zrotation Xrotation Yrotation
        JOINT Neck
        {
          OFFSET 0 22.3885 -0.4656
          CHANNELS 3 Zrotation Xrotation Yrotation
          JOINT Head
          {
            OFFSET -0.0001 12.643 3.4389
            CHANNELS 3 Zrotation Xrotation Yrotation
            End Site
            {
              OFFSET 0.0001 17.6655 0.5274
            }
          }
        }
        JOINT LeftCollar
        {
          OFFSET 2.2603 21.606 7.4023
          CHANNELS 3 Zrotation Xrotation Yrotation
          JOINT LeftShoulder
          {
            OFFSET 13.5163 -1.1332 -5.0146
            CHANNELS 3 Zrotation Xrotation Yrotation
            JOINT LeftElbow
            {
              OFFSET -0.0995 -28.05 -0.2431
              CHANNELS 3 Zrotation Xrotation Yrotation
              JOINT LeftWrist
              {
                OFFSET 0.0679 -23.3996 -0.1402
                CHANNELS 3 Zrotation Xrotation Yrotation
                JOINT LeftFinger1
                {
                  OFFSET 0.7932 -9.069 2.5189
                  CHANNELS 3 Zrotation Xrotation Yrotation
                  JOINT LeftFinger11
                  {
                    OFFSET -0.8272 -3.3923 0.5977
                    CHANNELS 3 Zrotation Xrotation Yrotation
                    JOINT LeftFinger12
                    {
                      OFFSET -0.5649 -2.3158 0.4082
                      CHANNELS 3 Zrotation Xrotation Yrotation
                      End Site
                      {
                        OFFSET -0.4919 -1.6479 0.2673
                      }
                    }
                  }
                }
                JOINT LeftFinger2
                {
                  OFFSET 0.9159 -9.2044 0.2193
                  CHANNELS 3 Zrotation Xrotation Yrotation
                  JOINT LeftFinger21
                  {
                    OFFSET 0.0117 -4.1944 -0.0248
                    CHANNELS 3 Zrotation Xrotation Yrotation
                    JOINT LeftFinger22
                    {
                      OFFSET 0.0071 -2.3249 -0.0142
                      CHANNELS 3 Zrotation Xrotation Yrotation
                      End Site
                      {
                        OFFSET -0.1475 -2.0882 0.0028
                      }
                    }
                  }
                }
                JOINT LeftFinger3
                {
                  OFFSET 0.6113 -8.7231 -2.0637
                  CHANNELS 3 Zrotation Xrotation Yrotation
                  JOINT LeftFinger31
                  {
                    OFFSET -0.1927 -3.8059 -0.2383
                    CHANNELS 3 Zrotation Xrotation Yrotation
                    JOINT LeftFinger32
                    {
                      OFFSET -0.1091 -2.1688 -0.1362
                      CHANNELS 3 Zrotation Xrotation Yrotation
                      End Site
                      {
                        OFFSET -0.2358 -1.9176 -0.0906
                      }
                    }
                  }
                }
                JOINT LeftFinger4
                {
                  OFFSET -0.6151 -8.0947 -3.5641
                  CHANNELS 3 Zrotation Xrotation Yrotation
                  JOINT LeftFinger41
                  {
                    OFFSET -0.4882 -2.341 -0.6462
                    CHANNELS 3 Zrotation Xrotation Yrotation
                    JOINT LeftFinger42
                    {
                      OFFSET -0.3575 -1.7167 -0.4742
                      CHANNELS 3 Zrotation Xrotation Yrotation
                      End Site
                      {
                        OFFSET -0.4187 -1.5237 -0.3496
                      }
                    }
                  }
                }
                JOINT LeftFinger0
                {
                  OFFSET -1.42 -1.8761 1.4223
                  CHANNELS 3 Zrotation Xrotation Yrotation
                  JOINT LeftFinger01
                  {
                    OFFSET -1.1471 -3.4929 2.6334
                    CHANNELS 3 Zrotation Xrotation Yrotation
                    JOINT LeftFinger02
                    {
                      OFFSET -0.823 -2.3 1.6571
                      CHANNELS 3 Zrotation Xrotation Yrotation
                      End Site
                      {
                        OFFSET -0.5822 -1.6914 1.1582
                      }
                    }
                  }
                }
              }
            }
          }
        }
        JOINT RightCollar
        {
          OFFSET -2.2603 21.606 7.4023
          CHANNELS 3 Zrotation Xrotation Yrotation
          JOINT RightShoulder
          {
            OFFSET -13.5187 -1.1334 -5.0155
            CHANNELS 3 Zrotation Xrotation Yrotation
            JOINT RightElbow
            {
              OFFSET 0.0994 -28.0499 -0.2431
              CHANNELS 3 Zrotation Xrotation Yrotation
              JOINT RightWrist
              {
                OFFSET -0.0679 -23.3996 -0.1402
                CHANNELS 3 Zrotation Xrotation Yrotation
                JOINT RightFinger1
                {
                  OFFSET -0.7932 -9.0691 2.5189
                  CHANNELS 3 Zrotation Xrotation Yrotation
                  JOINT RightFinger11
                  {
                    OFFSET 0.8272 -3.3923 0.5977
                    CHANNELS 3 Zrotation Xrotation Yrotation
                    JOINT RightFinger12
                    {
                      OFFSET 0.565 -2.3158 0.4082
                      CHANNELS 3 Zrotation Xrotation Yrotation
                      End Site
                      {
                        OFFSET 0.4919 -1.6479 0.2673
                      }
                    }
                  }
                }
                JOINT RightFinger2
                {
                  OFFSET -0.916 -9.2044 0.2193
                  CHANNELS 3 Zrotation Xrotation Yrotation
                  JOINT RightFinger21
                  {
                    OFFSET -0.0117 -4.1944 -0.0248
                    CHANNELS 3 Zrotation Xrotation Yrotation
                    JOINT RightFinger22
                    {
                      OFFSET -0.0071 -2.3249 -0.0142
                      CHANNELS 3 Zrotation Xrotation Yrotation
                      End Site
                      {
                        OFFSET 0.1475 -2.0882 0.0028
                      }
                    }
                  }
                }
                JOINT RightFinger3
                {
                  OFFSET -0.6113 -8.7231 -2.0637
                  CHANNELS 3 Zrotation Xrotation Yrotation
                  JOINT RightFinger31
                  {
                    OFFSET 0.1927 -3.8059 -0.2383
                    CHANNELS 3 Zrotation Xrotation Yrotation
                    JOINT RightFinger32
                    {
                      OFFSET 0.1091 -2.1688 -0.1362
                      CHANNELS 3 Zrotation Xrotation Yrotation
                      End Site
                      {
                        OFFSET 0.2358 -1.9176 -0.0906
                      }
                    }
                  }
                }
                JOINT RightFinger4
                {
                  OFFSET 0.6151 -8.0947 -3.564
                  CHANNELS 3 Zrotation Xrotation Yrotation
                  JOINT RightFinger41
                  {
                    OFFSET 0.4882 -2.341 -0.6462
                    CHANNELS 3 Zrotation Xrotation Yrotation
                    JOINT RightFinger42
                    {
                      OFFSET 0.3574 -1.7166 -0.4742
                      CHANNELS 3 Zrotation Xrotation Yrotation
                      End Site
                      {
                        OFFSET 0.4187 -1.5237 -0.3496
                      }
                    }
                  }
                }
                JOINT RightFinger0
                {
                  OFFSET 1.4199 -1.8761 1.4221
                  CHANNELS 3 Zrotation Xrotation Yrotation
                  JOINT RightFinger01
                  {
                    OFFSET 1.1472 -3.4929 2.6336
                    CHANNELS 3 Zrotation Xrotation Yrotation
                    JOINT RightFinger02
                    {
                      OFFSET 0.8229 -2.3 1.6571
                      CHANNELS 3 Zrotation Xrotation Yrotation
                      End Site
                      {
                        OFFSET 0.5822 -1.6914 1.1582
                      }
                    }
                  }
                }
              }
            }
          }
        }
      }
    }
  }
  JOINT RightHip
  {
    OFFSET -9.412 3.9771 -0.7758
    CHANNELS 3 Zrotation Xrotation Yrotation
    JOINT RightKnee
    {
      OFFSET -0.7531 -40.938 0
      CHANNELS 3 Zrotation Xrotation Yrotation
      JOINT RightAnkle
      {
        OFFSET 0 -40.1986 0
        CHANNELS 3 Zrotation Xrotation Yrotation
        JOINT RightToe
        {
          OFFSET 0 -4.4182 9.239
          CHANNELS 3 Zrotation Xrotation Yrotation
          End Site
          {
            OFFSET 0 0 6.1981
          }
        }
      }
    }
  }
  JOINT LeftHip
  {
    OFFSET 9.4119 3.9773 -0.7758
    CHANNELS 3 Zrotation Xrotation Yrotation
    JOINT LeftKnee
    {
      OFFSET 0.7532 -40.9383 0
      CHANNELS 3 Zrotation Xrotation Yrotation
      JOINT LeftAnkle
      {
        OFFSET 0 -40.1986 0
        CHANNELS 3 Zrotation Xrotation Yrotation
        JOINT LeftToe
        {
          OFFSET 0 -4.4182 9.239
          CHANNELS 3 Zrotation Xrotation Yrotation
          End Site
          {
            OFFSET 0 0 6.1981
          }
        }
      }
    }
  }
}
MOTION
Frames:	4
Frame Time:	0.0333333
0.652317 12.1868 9.72052 -7.08406e-015 -0.549942 180 -0.0406405 6.34185 -0.0328589 -0.0783222 12.6837 -0.0617323 -0.0783225 12.6838 -0.0617325 -4.36193 0.431694 -6.56356 -4.33024 -15.8048 -0.893862 -19.0079 -30.4127 -39.6949 61.2102 -23.7528 5.82445 -61.5828 9.2805 -77.6284 72.124 -6.27475 11.1042 -1.43125e-014 0 -4.77083e-015 1.22323e-006 1.49487e-006 -2.52129e-006 -4.77083e-015 -3.18055e-015 4.77083e-015 -1.43125e-014 0 -4.77083e-015 -0.0128261 0.00232158 7.66204e-005 3.73098e-006 -3.70309e-007 -3.18211e-006 -1.43125e-014 0 -4.77083e-015 -0.0160638 0.00300091 0.000854827 -1.22409e-006 -1.13449e-006 2.52127e-006 -1.43125e-014 0 -4.77083e-015 -0.0125834 0.00312425 0.00282488 -7.18707e-006 -1.07414e-006 -3.82455e-006 -1.43125e-014 0 -4.77083e-015 1.22323e-006 1.49487e-006 -2.52129e-006 -4.77083e-015 -3.18055e-015 4.77083e-015 21.5087 -28.4726 33.928 -61.9826 -33.8733 -3.93469 56.9899 8.70252 65.665 -74.3943 -5.81122 -13.6826 5.08593e-008 1.86403e-006 -5.25073e-006 7.95139e-015 0 7.95139e-016 3.2739e-007 -9.35072e-007 -3.67227e-006 5.08593e-008 1.86403e-006 -5.25073e-006 0.0129264 0.00231264 -8.82503e-005 2.93376e-006 1.17635e-007 -1.64464e-006 5.08593e-008 1.86403e-006 -5.25073e-006 0.0163426 0.00302591 -0.000865503 1.51944e-006 6.17738e-006 -6.0731e-006 5.08593e-008 1.86403e-006 -5.25073e-006 0.0145905 0.00368107 -0.00326105 1.59028e-015 -6.36111e-015 -7.15625e-015 5.08593e-008 1.86403e-006 -5.25073e-006 7.95139e-015 0 7.95139e-016 3.2739e-007 -9.35072e-007 -3.67227e-006 -118.527 -44.0508 -132.836 -141.563 64.9597 143.968 -0.564086 -9.13775 -2.73187 7.60008e-007 -1.67553e-007 4.73063e-006 118.533 -44.0672 132.815 141.594 64.9832 -143.998 0.557745 -9.1295 2.70619 -1.2807e-006 -3.11566e-006 -5.2626e-006 
0.652322 12.2613 9.83956 -7.15163e-015 -1.10161 180 -0.0402098 6.06552 -0.0334349 -0.0774945 12.1311 -0.0630963 -0.0774947 12.1311 -0.0630964 -4.32929 -0.112739 -6.55187 -4.31748 -16.9512 -0.970367 -19.3709 -29.3532 -39.654 61.2102 -23.7528 5.82446 -60.2768 9.17679 -77.6581 72.1545 -6.47715 11.797 -8.81157e-008 -2.28854e-006 2.18154e-006 4.37189e-008 -1.48378e-006 1.46145e-006 -2.50115e-006 1.07778e-008 2.11511e-006 -8.81157e-008 -2.28854e-006 2.18154e-006 -0.0128443 0.00233279 7.86948e-005 5.94158e-006 -1.49318e-006 1.00045e-005 -8.81157e-008 -2.28854e-006 2.18154e-006 -0.0160494 0.00299505 0.000854597 1.59028e-015 -1.27222e-014 -0 -8.81157e-008 -2.28854e-006 2.18154e-006 -0.0125753 0.00311083 0.0028179 -2.50105e-006 4.03526e-006 2.11493e-006 -8.81157e-008 -2.28854e-006 2.18154e-006 4.37189e-008 -1.48378e-006 1.46145e-006 -2.50115e-006 1.07778e-008 2.11511e-006 21.6778 -27.5532 33.7859 -61.9826 -33.8733 -3.9347 56.0771 8.62086 65.7748 -74.3166 -5.92828 -14.2035 1.59028e-015 6.36111e-015 2.38542e-015 -5.61157e-007 -4.25855e-006 3.10584e-007 1.59028e-015 6.36111e-015 7.95139e-016 1.59028e-015 6.36111e-015 2.38542e-015 0.0129531 0.00231844 -8.69691e-005 -1.07771e-005 -6.06359e-006 -9.67751e-007 1.59028e-015 6.36111e-015 2.38542e-015 0.0163448 0.00303851 -0.000864668 6.36111e-015 6.36111e-015 -1.59028e-015 1.59028e-015 6.36111e-015 2.38542e-015 0.0145752 0.00367815 -0.00326241 6.36111e-015 0 8.74653e-015 1.59028e-015 6.36111e-015 2.38542e-015 -5.61157e-007 -4.25855e-006 3.10584e-007 1.59028e-015 6.36111e-015 7.95139e-016 -119.03 -44.1689 -133.351 -141.57 64.9562 143.974 -0.311821 -9.14997 -2.99544 7.95139e-016 1.52207e-006 6.36111e-015 119.036 -44.1856 133.33 141.601 64.9796 -144.004 0.30552 -9.14143 2.96999 -7.45584e-007 -1.73232e-007 -4.73242e-006 
0.652326 12.3364 9.95892 -7.21923e-015 -1.65321 180 -0.0397841 5.78925 -0.034008 -0.0766858 11.5785 -0.0644491 -0.076686 11.5786 -0.0644492 -4.29653 -0.65725 -6.53987 -4.30626 -18.0984 -1.04714 -19.7309 -28.2944 -39.6059 61.2102 -23.7528 5.82444 -59.038 9.06706 -76.6304 72.1846 -6.72745 12.4742 -5.63185e-008 -4.31817e-006 -1.48296e-006 1.05934e-030 9.54166e-015 -6.36111e-015 0 0 -4.77083e-015 -5.63185e-008 -4.31817e-006 -1.48296e-006 -0.0128187 0.00233081 9.30656e-005 2.63547e-006 1.29142e-006 -5.71867e-006 -5.63185e-008 -4.31817e-006 -1.48296e-006 -0.0160435 0.00300226 0.000855874 -3.18055e-015 1.27222e-014 -1.27222e-014 -5.63185e-008 -4.31817e-006 -1.48296e-006 -0.0125681 0.0031244 0.00282754 -9.36107e-006 2.88723e-006 -4.78251e-006 -5.63185e-008 -4.31817e-006 -1.48296e-006 1.05934e-030 9.54166e-015 -6.36111e-015 0 0 -4.77083e-015 21.848 -26.6345 33.6421 -61.9826 -33.8733 -3.9347 55.1649 8.537 65.8829 -74.2399 -6.04593 -14.7244 -3.18055e-015 -9.54166e-015 -4.77083e-015 -1.25548e-005 -8.97293e-007 -1.72001e-006 -1.59028e-015 0 1.19271e-014 -3.18055e-015 -9.54166e-015 -4.77083e-015 0.0129562 0.00231895 -9.57553e-005 -1.59028e-015 -6.36111e-015 -7.15625e-015 -3.18055e-015 -9.54166e-015 -4.77083e-015 0.0163156 0.00302816 -0.000874916 5.29669e-031 -9.54166e-015 3.18055e-015 -3.18055e-015 -9.54166e-015 -4.77083e-015 0.014578 0.00368111 -0.00327469 -2.62229e-006 1.727e-006 3.23015e-006 -3.18055e-015 -9.54166e-015 -4.77083e-015 -1.25548e-005 -8.97293e-007 -1.72001e-006 -1.59028e-015 0 1.19271e-014 -119.536 -44.2838 -133.869 -141.578 64.9525 143.98 -0.0595418 -9.16237 -3.25899 0 4.77083e-015 -0 119.541 -44.3007 133.848 141.609 64.9759 -144.01 0.0533038 -9.15354 3.23371 8.38905e-007 1.43474e-006 -1.39366e-007 
0.652331 12.4121 10.0786 -7.28685e-015 -2.20476 180 -0.0393626 5.51302 -0.0345782 -0.0758957 11.0261 -0.0657911 -0.075896 11.0261 -0.0657913 -4.26365 -1.20182 -6.52755 -4.29657 -19.2463 -1.12424 -20.0883 -27.2364 -39.5508 61.2102 -23.7528 5.82446 -57.7871 8.95276 -75.6934 72.2168 -6.96596 13.1554 3.18055e-015 3.18055e-015 -1.59028e-015 -3.18055e-015 -3.18055e-015 -7.95139e-015 1.59028e-015 3.18055e-015 -3.18055e-015 3.18055e-015 3.18055e-015 -1.59028e-015 -0.0128161 0.00231586 7.86583e-005 7.95139e-015 -9.54166e-015 1.11319e-014 3.18055e-015 3.18055e-015 -1.59028e-015 -0.0160436 0.0029982 0.000854179 3.18055e-015 -5.54169e-007 -1.59028e-015 3.18055e-015 3.18055e-015 -1.59028e-015 -0.0125746 0.00312184 0.0028264 2.33667e-006 -4.68346e-006 -1.35464e-006 3.18055e-015 3.18055e-015 -1.59028e-015 -3.18055e-015 -3.18055e-015 -7.95139e-015 1.59028e-015 3.18055e-015 -3.18055e-015 22.0193 -25.7165 33.4964 -61.9826 -33.8733 -3.93471 54.2534 8.45106 65.9895 -74.1642 -6.16397 -15.2453 -1.59028e-015 3.18055e-015 7.95139e-016 1.59028e-015 0 5.56597e-015 -1.59028e-015 6.36111e-015 -0 -1.59028e-015 3.18055e-015 7.95139e-016 0.0129482 0.00231916 -8.3004e-005 2.88642e-006 4.23177e-006 -6.91173e-006 -1.59028e-015 3.18055e-015 7.95139e-016 0.0163425 0.00303307 -0.000885802 -1.59028e-015 0 -1.59028e-015 -1.59028e-015 3.18055e-015 7.95139e-016 0.0146018 0.00368605 -0.00327486 -3.84609e-006 -1.68212e-006 7.41792e-006 -1.59028e-015 3.18055e-015 7.95139e-016 1.59028e-015 0 5.56597e-015 -1.59028e-015 6.36111e-015 -0 -120.044 -44.3955 -134.388 -141.585 64.9488 143.986 0.19272 -9.17501 -3.52249 -7.61057e-026 1.371e-009 3.18055e-015 120.049 -44.4125 134.368 141.616 64.9722 -144.016 -0.1989 -9.16569 3.49738 -4.19652e-007 3.29542e-007 6.84083e-008 
